<svg xmlns="http://www.w3.org/2000/svg" width="1200" height="320" viewBox="0 0 1200 320" role="img" aria-labelledby="title">
  <title id="title">HAPI Companion horizontal logo</title>
  <g transform="translate(28 18) scale(.55)">
    <path fill="#DC4454" d="M218 370h76v46a38 38 0 0 1-76 0z"/>
    <rect x="62" y="92" width="388" height="304" rx="104" fill="#F25562"/>
    <rect x="112" y="136" width="288" height="208" rx="76" fill="#281B2D"/>
    <path d="M166 248a30 30 0 0 1 48 0M298 248a30 30 0 0 1 48 0" fill="none" stroke="#FFF8F8" stroke-width="18" stroke-linecap="round"/>
    <path d="m401 73 13 30 30 13-30 13-13 30-13-30-30-13 30-13z" fill="#42C89A" stroke="#FFF8F8" stroke-width="10" stroke-linejoin="round"/>
  </g>
  <text x="342" y="147" fill="#281B2D" font-family="-apple-system, BlinkMacSystemFont, Inter, sans-serif" font-size="88" font-weight="750" letter-spacing="-3">HAPI</text>
  <text x="342" y="230" fill="#655869" font-family="-apple-system, BlinkMacSystemFont, Inter, sans-serif" font-size="68" font-weight="520" letter-spacing="-2">Companion</text>
</svg>
